<svg width="117" height="25" viewBox="0 0 117 25" fill="none" xmlns="http://www.w3.org/2000/svg">
<path d="M6.909 19.294C5.712 19.294 4.669 19.0105 3.78 18.4435C2.898 17.8695 2.212 17.0505 1.722 15.9865C1.232 14.9225 0.987 13.645 0.987 12.154C0.987 10.614 1.239 9.3225 1.743 8.2795C2.254 7.2295 2.954 6.4385 3.843 5.9065C4.739 5.3675 5.761 5.098 6.909 5.098C8.498 5.098 9.737 5.483 10.626 6.253C11.522 7.023 12.096 8.024 12.348 9.256L9.702 9.739C9.485 9.025 9.1385 8.4475 8.6625 8.0065C8.1865 7.5655 7.602 7.345 6.909 7.345C6.3 7.345 5.7505 7.5235 5.2605 7.8805C4.7705 8.2305 4.3785 8.7625 4.0845 9.4765C3.7975 10.1905 3.654 11.083 3.654 12.154C3.654 13.162 3.78 14.03 4.032 14.758C4.291 15.486 4.662 16.046 5.145 16.438C5.628 16.83 6.216 17.026 6.909 17.026C7.798 17.026 8.484 16.7915 8.967 16.3225C9.457 15.8465 9.702 15.241 9.702 14.506H12.348C12.348 15.521 12.1275 16.3855 11.6865 17.0995C11.2525 17.8065 10.6295 18.349 9.8175 18.727C9.0055 19.105 8.036 19.294 6.909 19.294ZM19.1686 19.294C18.2376 19.294 17.3941 19.0945 16.6381 18.6955C15.8891 18.2965 15.2941 17.7015 14.8531 16.9105C14.4121 16.1125 14.1916 15.115 14.1916 13.918C14.1916 12.7 14.4121 11.692 14.8531 10.894C15.2941 10.096 15.8891 9.501 16.6381 9.109C17.3941 8.717 18.2376 8.521 19.1686 8.521C20.0856 8.521 20.9151 8.717 21.6571 9.109C22.4061 9.501 23.0011 10.096 23.4421 10.894C23.8831 11.692 24.1036 12.7 24.1036 13.918C24.1036 15.115 23.8831 16.1125 23.4421 16.9105C23.0011 17.7015 22.4061 18.2965 21.6571 18.6955C20.9151 19.0945 20.0856 19.294 19.1686 19.294ZM19.0846 17.131C19.5746 17.131 20.0086 17.012 20.3866 16.774C20.7716 16.529 21.0726 16.1685 21.2896 15.6925C21.5136 15.2165 21.6256 14.625 21.6256 13.918C21.6256 12.84 21.4121 12.028 20.9851 11.482C20.5651 10.936 19.9876 10.663 19.2526 10.663C18.7556 10.663 18.3146 10.7855 17.9296 11.0305C17.5446 11.2685 17.2401 11.629 17.0161 12.112C16.7991 12.595 16.6906 13.197 16.6906 13.918C16.6906 14.982 16.9041 15.7835 17.3311 16.3225C17.7651 16.8615 18.3496 17.131 19.0846 17.131ZM27.5351 19V7.576C27.5351 6.841 27.6786 6.2425 27.9656 5.7805C28.2526 5.3185 28.6306 4.979 29.0996 4.762C29.5756 4.538 30.0901 4.426 30.6431 4.426C30.9861 4.426 31.3396 4.4505 31.7036 4.4995C32.0676 4.5485 32.4211 4.608 32.7641 4.678L32.2811 6.589C32.1061 6.526 31.9241 6.477 31.7351 6.442C31.5461 6.4 31.3641 6.379 31.1891 6.379C30.9931 6.379 30.8076 6.4175 30.6326 6.4945C30.4576 6.5645 30.3141 6.6905 30.2021 6.8725C30.0901 7.0545 30.0341 7.303 30.0341 7.618V19H27.5351ZM26.0231 10.453V8.815H31.9031V10.453H26.0231ZM35.141 19V7.576C35.141 6.841 35.2845 6.2425 35.5715 5.7805C35.8585 5.3185 36.2365 4.979 36.7055 4.762C37.1815 4.538 37.696 4.426 38.249 4.426C38.592 4.426 38.9455 4.4505 39.3095 4.4995C39.6735 4.5485 40.027 4.608 40.37 4.678L39.887 6.589C39.712 6.526 39.53 6.477 39.341 6.442C39.152 6.4 38.97 6.379 38.795 6.379C38.599 6.379 38.4135 6.4175 38.2385 6.4945C38.0635 6.5645 37.92 6.6905 37.808 6.8725C37.696 7.0545 37.64 7.303 37.64 7.618V19H35.141ZM33.629 10.453V8.815H39.509V10.453H33.629ZM45.96 19.294C45.092 19.294 44.2975 19.07 43.5765 18.622C42.8555 18.174 42.278 17.5475 41.844 16.7425C41.41 15.9305 41.193 14.982 41.193 13.897C41.193 12.777 41.4065 11.8145 41.8335 11.0095C42.2675 10.2045 42.845 9.5885 43.566 9.1615C44.287 8.7345 45.085 8.521 45.96 8.521C46.772 8.521 47.472 8.6855 48.06 9.0145C48.655 9.3365 49.131 9.7775 49.488 10.3375C49.852 10.8905 50.097 11.517 50.223 12.217C50.349 12.917 50.356 13.638 50.244 14.38H43.167V13.036H48.4905L48.0075 13.351C48.0285 13.022 48.011 12.6895 47.955 12.3535C47.906 12.0175 47.808 11.7095 47.661 11.4295C47.514 11.1495 47.304 10.9255 47.031 10.7575C46.765 10.5825 46.422 10.495 46.002 10.495C45.498 10.495 45.071 10.621 44.721 10.873C44.371 11.125 44.105 11.468 43.923 11.902C43.741 12.336 43.65 12.826 43.65 13.372V14.359C43.65 14.933 43.734 15.4405 43.902 15.8815C44.077 16.3225 44.3325 16.669 44.6685 16.921C45.0115 17.173 45.442 17.299 45.96 17.299C46.443 17.299 46.849 17.187 47.178 16.963C47.507 16.739 47.717 16.403 47.808 15.955H50.307C50.202 16.613 49.9535 17.194 49.5615 17.698C49.1765 18.195 48.676 18.587 48.06 18.874C47.444 19.154 46.744 19.294 45.96 19.294ZM56.9907 19.294C56.1227 19.294 55.3282 19.07 54.6072 18.622C53.8862 18.174 53.3087 17.5475 52.8747 16.7425C52.4407 15.9305 52.2237 14.982 52.2237 13.897C52.2237 12.777 52.4372 11.8145 52.8642 11.0095C53.2982 10.2045 53.8757 9.5885 54.5967 9.1615C55.3177 8.7345 56.1157 8.521 56.9907 8.521C57.8027 8.521 58.5027 8.6855 59.0907 9.0145C59.6857 9.3365 60.1617 9.7775 60.5187 10.3375C60.8827 10.8905 61.1277 11.517 61.2537 12.217C61.3797 12.917 61.3867 13.638 61.2747 14.38H54.1977V13.036H59.5212L59.0382 13.351C59.0592 13.022 59.0417 12.6895 58.9857 12.3535C58.9367 12.0175 58.8387 11.7095 58.6917 11.4295C58.5447 11.1495 58.3347 10.9255 58.0617 10.7575C57.7957 10.5825 57.4527 10.495 57.0327 10.495C56.5287 10.495 56.1017 10.621 55.7517 10.873C55.4017 11.125 55.1357 11.468 54.9537 11.902C54.7717 12.336 54.6807 12.826 54.6807 13.372V14.359C54.6807 14.933 54.7647 15.4405 54.9327 15.8815C55.1077 16.3225 55.3632 16.669 55.6992 16.921C56.0422 17.173 56.4727 17.299 56.9907 17.299C57.4737 17.299 57.8797 17.187 58.2087 16.963C58.5377 16.739 58.7477 16.403 58.8387 15.955H61.3377C61.2327 16.613 60.9842 17.194 60.5922 17.698C60.2072 18.195 59.7067 18.587 59.0907 18.874C58.4747 19.154 57.7747 19.294 56.9907 19.294ZM68.9665 19.294C68.0215 19.294 67.15 19.1295 66.352 18.8005C65.561 18.4715 64.917 17.971 64.42 17.299C63.93 16.627 63.6675 15.773 63.6325 14.737H66.0685C66.0685 15.262 66.198 15.6925 66.457 16.0285C66.716 16.3645 67.0625 16.6165 67.4965 16.7845C67.9375 16.9455 68.4205 17.026 68.9455 17.026C69.4495 17.026 69.8975 16.9595 70.2895 16.8265C70.6885 16.6935 71 16.5045 71.224 16.2595C71.455 16.0075 71.5705 15.71 71.5705 15.367C71.5705 14.912 71.4305 14.555 71.1505 14.296C70.8775 14.037 70.4365 13.799 69.8275 13.582L67.1395 12.511C66.0895 12.098 65.2845 11.6185 64.7245 11.0725C64.1645 10.5265 63.8845 9.774 63.8845 8.815C63.8845 7.709 64.322 6.813 65.197 6.127C66.072 5.441 67.2935 5.098 68.8615 5.098C70.3875 5.098 71.567 5.455 72.4 6.169C73.233 6.876 73.7055 7.863 73.8175 9.13H71.3815C71.2905 8.591 71.0455 8.1605 70.6465 7.8385C70.2475 7.5095 69.6525 7.345 68.8615 7.345C68.1615 7.345 67.6085 7.492 67.2025 7.786C66.7965 8.073 66.5935 8.437 66.5935 8.878C66.5935 9.256 66.7195 9.557 66.9715 9.781C67.2305 9.998 67.6295 10.208 68.1685 10.411L71.1505 11.566C72.1585 11.958 72.932 12.4515 73.471 13.0465C74.01 13.6415 74.2795 14.387 74.2795 15.283C74.2795 16.102 74.073 16.8125 73.66 17.4145C73.247 18.0095 72.645 18.4715 71.854 18.8005C71.063 19.1295 70.1005 19.294 68.9665 19.294ZM80.9511 19.294C80.3491 19.294 79.7961 19.182 79.2921 18.958C78.7951 18.734 78.3961 18.391 78.0951 17.929C77.8011 17.467 77.6541 16.879 77.6541 16.165V6.106H80.1321V16.081C80.1321 16.921 80.5311 17.341 81.3291 17.341C81.5741 17.341 81.8191 17.313 82.0641 17.257C82.3091 17.201 82.5891 17.117 82.9041 17.005L83.2611 18.748C82.8691 18.902 82.4876 19.0315 82.1166 19.1365C81.7456 19.2415 81.3571 19.294 80.9511 19.294ZM76.2261 10.453V8.815H82.9041V10.453H76.2261ZM84.1332 8.815H86.9472L89.6562 16.837H89.2152L91.5462 8.815H94.0662L90.1602 20.848C89.7612 22.052 89.2677 22.9235 88.6797 23.4625C88.0987 24.0015 87.3882 24.271 86.5482 24.271C86.0652 24.271 85.5927 24.215 85.1307 24.103C84.6757 23.998 84.2102 23.83 83.7342 23.599V21.415C84.1192 21.653 84.4902 21.828 84.8472 21.94C85.2112 22.052 85.5752 22.108 85.9392 22.108C86.2682 22.108 86.5552 22.017 86.8002 21.835C87.0522 21.66 87.2692 21.4115 87.4512 21.0895C87.6332 20.7745 87.7872 20.407 87.9132 19.987L88.2282 19L84.1332 8.815ZM96.1643 19V4.594H98.6423V19H96.1643ZM106.259 19.294C105.391 19.294 104.596 19.07 103.875 18.622C103.154 18.174 102.577 17.5475 102.143 16.7425C101.709 15.9305 101.492 14.982 101.492 13.897C101.492 12.777 101.705 11.8145 102.132 11.0095C102.566 10.2045 103.144 9.5885 103.865 9.1615C104.586 8.7345 105.384 8.521 106.259 8.521C107.071 8.521 107.771 8.6855 108.359 9.0145C108.954 9.3365 109.43 9.7775 109.787 10.3375C110.151 10.8905 110.396 11.517 110.522 12.217C110.648 12.917 110.655 13.638 110.543 14.38H103.466V13.036H108.789L108.306 13.351C108.327 13.022 108.31 12.6895 108.254 12.3535C108.205 12.0175 108.107 11.7095 107.96 11.4295C107.813 11.1495 107.603 10.9255 107.33 10.7575C107.064 10.5825 106.721 10.495 106.301 10.495C105.797 10.495 105.37 10.621 105.02 10.873C104.67 11.125 104.404 11.468 104.222 11.902C104.04 12.336 103.949 12.826 103.949 13.372V14.359C103.949 14.933 104.033 15.4405 104.201 15.8815C104.376 16.3225 104.631 16.669 104.967 16.921C105.31 17.173 105.741 17.299 106.259 17.299C106.742 17.299 107.148 17.187 107.477 16.963C107.806 16.739 108.016 16.403 108.107 15.955H110.606C110.501 16.613 110.252 17.194 109.86 17.698C109.475 18.195 108.975 18.587 108.359 18.874C107.743 19.154 107.043 19.294 106.259 19.294ZM112.039 17.551C112.039 17.075 112.2 16.676 112.522 16.354C112.844 16.032 113.257 15.871 113.761 15.871C114.265 15.871 114.685 16.032 115.021 16.354C115.357 16.676 115.525 17.075 115.525 17.551C115.525 18.02 115.357 18.412 115.021 18.727C114.685 19.035 114.265 19.189 113.761 19.189C113.257 19.189 112.844 19.0315 112.522 18.7165C112.2 18.4015 112.039 18.013 112.039 17.551Z" fill="black"/>
</svg>
